<svg id="Layer_1" data-name="Layer 1" xmlns="http://www.w3.org/2000/svg" xmlns:xlink="http://www.w3.org/1999/xlink"
     viewBox="0 0 183.67 64">
    <defs>
        <style>
            .cls-1{fill:none;stroke:#2196f3;stroke-miterlimit:10;stroke-width:2px;}.cls-2{fill:url(#linear-gradient);}.cls-3{fill:url(#linear-gradient-2);}.cls-4{fill:url(#linear-gradient-3);}.cls-5{fill:url(#linear-gradient-4);}
        </style>
        <linearGradient id="linear-gradient" x1="73.9" y1="32" x2="97.06" y2="32" gradientUnits="userSpaceOnUse">
            <stop offset="0" stop-color="#2196f3"/>
            <stop offset="0.25" stop-color="#2199f1"/>
            <stop offset="0.46" stop-color="#20a4e9"/>
            <stop offset="0.65" stop-color="#1fb5dc"/>
            <stop offset="0.84" stop-color="#1ececa"/>
            <stop offset="1" stop-color="#1de9b6"/>
        </linearGradient>
        <linearGradient id="linear-gradient-2" x1="98.21" y1="32" x2="124.69" y2="32" xlink:href="#linear-gradient"/>
        <linearGradient id="linear-gradient-3" x1="127.59" y1="32" x2="151.48" y2="32" xlink:href="#linear-gradient"/>
        <linearGradient id="linear-gradient-4" x1="156.64" y1="32" x2="182.63" y2="32" xlink:href="#linear-gradient"/>
    </defs>
    <path class="cls-1" d="M16.18,26.56V43.15H8.69V26.56H1V20.85H23.81v5.71Z"/>
    <path class="cls-1" d="M27.57,43.15V20.85h7.49v22.3Z"/>
    <path class="cls-2"
          d="M92.49,31.62v-.14c2.68-.77,4-2.63,4-5.58a5.39,5.39,0,0,0-.89-3,5.93,5.93,0,0,0-2.4-2.11A7.4,7.4,0,0,0,89.88,20h-16V44H90.09a7.84,7.84,0,0,0,3.52-.8A6.35,6.35,0,0,0,96.14,41a6.13,6.13,0,0,0,.92-3.33Q97.06,32.66,92.49,31.62ZM81.61,25.27h5.3a1.69,1.69,0,0,1,1.26.54,1.81,1.81,0,0,1,.52,1.31v.35a1.88,1.88,0,0,1-.51,1.34,1.66,1.66,0,0,1-1.27.54h-5.3Zm7.64,11.26a1.89,1.89,0,0,1-.51,1.35,1.66,1.66,0,0,1-1.27.54H81.61V34.3h5.86a1.66,1.66,0,0,1,1.27.54,1.89,1.89,0,0,1,.51,1.35Z"/>
    <path class="cls-3"
          d="M107,20,98.21,44h7.89l1-3.38h8.41l1,3.38h8.16l-8.76-24Zm1.74,15.24,2.55-8.54h.14l2.51,8.54Z"/>
    <polygon class="cls-4"
             points="144.4 31.83 134.32 20 127.59 20 127.59 44 134.67 44 134.67 32.35 144.75 44 151.48 44 151.48 20 144.4 20 144.4 31.83"/>
    <polygon class="cls-5"
             points="173.84 29.87 182.46 20 172.9 20 164.35 30.26 164.35 20 156.64 20 156.64 44 164.35 44 164.35 38.63 168.54 35.21 173.53 44 182.63 44 173.84 29.87"/>
    <path class="cls-1" d="M40.42,20.85H59.26V26.2H47.91V30h9.76v5.12H47.91v8H40.42Z"/>
</svg>