<svg xmlns="http://www.w3.org/2000/svg" xmlns:xlink="http://www.w3.org/1999/xlink" viewBox="0 0 500 500">
    <defs>
        <style>
            .cls-1,.cls-6{fill:none;}.cls-2,.cls-3,.cls-4,.cls-5{stroke:#fff;}.cls-2,.cls-3,.cls-4,.cls-5,.cls-6{stroke-miterlimit:10;stroke-width:2px;}.cls-2{fill:url(#linear-gradient);}.cls-3{fill:url(#linear-gradient-2);}.cls-4{fill:url(#linear-gradient-3);}.cls-5{fill:url(#linear-gradient-4);}.cls-6{stroke:#2196f3;}
        </style>
        <linearGradient id="linear-gradient" x1="114.63" y1="311.95" x2="172.94" y2="311.95"
                        gradientUnits="userSpaceOnUse">
            <stop offset="0" stop-color="#2196f3"/>
            <stop offset="0.32" stop-color="#2199f1"/>
            <stop offset="0.52" stop-color="#20a1eb"/>
            <stop offset="0.68" stop-color="#20b0e0"/>
            <stop offset="0.82" stop-color="#1fc4d1"/>
            <stop offset="0.96" stop-color="#1edebe"/>
            <stop offset="1" stop-color="#1de9b6"/>
        </linearGradient>
        <linearGradient id="linear-gradient-2" x1="175.84" y1="311.95" x2="242.5" y2="311.95"
                        xlink:href="#linear-gradient"/>
        <linearGradient id="linear-gradient-3" x1="249.79" y1="311.95" x2="309.95" y2="311.95"
                        xlink:href="#linear-gradient"/>
        <linearGradient id="linear-gradient-4" x1="322.95" y1="311.95" x2="388.37" y2="311.95"
                        xlink:href="#linear-gradient"/>
    </defs>
    <g id="Layer_2" data-name="Layer 2">
        <rect class="cls-1" width="500" height="500"/>
        <path class="cls-2"
              d="M161.44,311v-.36q10.09-3,10.1-14.42a14.31,14.31,0,0,0-2.24-7.84,15.28,15.28,0,0,0-6.06-5.45,18.33,18.33,0,0,0-8.39-1.94H114.63v62h40.75a19.18,19.18,0,0,0,8.87-2.07,15.72,15.72,0,0,0,8.69-14.42Q172.94,313.67,161.44,311ZM134,294.56h13.34a4.21,4.21,0,0,1,3.17,1.39,4.8,4.8,0,0,1,1.31,3.38v.9a4.93,4.93,0,0,1-1.27,3.47,4.13,4.13,0,0,1-3.21,1.4H134Zm19.23,29.1a5,5,0,0,1-1.27,3.47,4.13,4.13,0,0,1-3.21,1.4H134V317.9h14.75a4.16,4.16,0,0,1,3.21,1.39,5,5,0,0,1,1.27,3.47Z"/>
        <path class="cls-3"
              d="M197.88,281l-22,62h19.85l2.55-8.74H219.4L222,343H242.5l-22.05-62Zm4.39,39.38,6.42-22.08H209l6.32,22.08Z"/>
        <polygon class="cls-4"
                 points="292.12 311.5 266.74 280.95 249.79 280.95 249.79 342.95 267.62 342.95 267.62 312.85 293 342.95 309.95 342.95 309.95 280.95 292.12 280.95 292.12 311.5"/>
        <polygon class="cls-5"
                 points="366.24 306.45 387.94 280.95 363.87 280.95 342.35 307.44 342.35 280.95 322.94 280.95 322.94 342.95 342.35 342.95 342.35 329.07 352.89 320.24 365.45 342.95 388.37 342.95 366.24 306.45"/>
        <polygon class="cls-6"
                 points="111.63 183.87 147.64 183.87 147.64 261.88 182.85 261.88 182.85 183.87 218.71 183.87 218.71 157.05 111.63 157.05 111.63 183.87"/>
        <rect class="cls-6" x="236.39" y="157.05" width="35.21" height="104.83"/>
        <polygon class="cls-6"
                 points="385.37 182.19 385.37 157.05 296.78 157.05 296.78 261.88 331.99 261.88 331.99 224.25 377.88 224.25 377.88 200.17 331.99 200.17 331.99 182.19 385.37 182.19"/>
    </g>
</svg>