<svg id="Layer_1" data-name="Layer 1" xmlns="http://www.w3.org/2000/svg" xmlns:xlink="http://www.w3.org/1999/xlink"
     viewBox="0 0 500 500">
    <defs>
        <style>
            .cls-1{fill:none;stroke:#2196f3;stroke-miterlimit:10;stroke-width:2px;}.cls-2{fill:url(#linear-gradient);}.cls-3{fill:url(#linear-gradient-2);}.cls-4{fill:url(#linear-gradient-3);}.cls-5{fill:url(#linear-gradient-4);}
        </style>
        <linearGradient id="linear-gradient" x1="211.21" y1="251.52" x2="265.66" y2="251.52"
                        gradientUnits="userSpaceOnUse">
            <stop offset="0" stop-color="#2196f3"/>
            <stop offset="0.25" stop-color="#2199f1"/>
            <stop offset="0.46" stop-color="#20a4e9"/>
            <stop offset="0.65" stop-color="#1fb5dc"/>
            <stop offset="0.84" stop-color="#1ececa"/>
            <stop offset="1" stop-color="#1de9b6"/>
        </linearGradient>
        <linearGradient id="linear-gradient-2" x1="268.37" y1="251.52" x2="330.6" y2="251.52"
                        xlink:href="#linear-gradient"/>
        <linearGradient id="linear-gradient-3" x1="337.41" y1="251.52" x2="393.58" y2="251.52"
                        xlink:href="#linear-gradient"/>
        <linearGradient id="linear-gradient-4" x1="405.72" y1="251.52" x2="466.81" y2="251.52"
                        xlink:href="#linear-gradient"/>
    </defs>
    <path class="cls-1" d="M75.55,238.72v39H57.94v-39h-18V225.31H93.47v13.41Z"/>
    <path class="cls-1" d="M102.31,277.72V225.31h17.61v52.41Z"/>
    <path class="cls-2"
          d="M254.92,250.61v-.32q9.42-2.72,9.43-13.12a12.79,12.79,0,0,0-2.09-7.14,14.13,14.13,0,0,0-5.66-5,17.51,17.51,0,0,0-7.83-1.76H211.21v56.41h38a18.19,18.19,0,0,0,8.28-1.88,14.69,14.69,0,0,0,5.95-5.29,14.23,14.23,0,0,0,2.17-7.83Q265.66,253.08,254.92,250.61Zm-25.59-14.92H241.8a3.94,3.94,0,0,1,2.95,1.27A4.26,4.26,0,0,1,246,240v.82a4.44,4.44,0,0,1-1.19,3.15,3.91,3.91,0,0,1-3,1.27H229.33Zm18,26.49a4.4,4.4,0,0,1-1.19,3.15,3.91,3.91,0,0,1-3,1.27H229.33v-9.67h13.78a3.91,3.91,0,0,1,3,1.27,4.42,4.42,0,0,1,1.19,3.16Z"/>
    <path class="cls-3"
          d="M289,223.31l-20.58,56.41H286.9l2.38-8H309l2.38,8H330.6L310,223.31Zm4.1,35.83,6-20.09h.32l5.91,20.09Z"/>
    <polygon class="cls-4"
             points="376.94 251.11 353.24 223.31 337.41 223.31 337.41 279.73 354.06 279.73 354.06 252.34 377.75 279.73 393.58 279.73 393.58 223.31 376.94 223.31 376.94 251.11"/>
    <polygon class="cls-5"
             points="446.14 246.51 466.4 223.31 443.93 223.31 423.84 247.42 423.84 223.31 405.72 223.31 405.72 279.73 423.84 279.73 423.84 267.1 433.68 259.06 445.4 279.73 466.81 279.73 446.14 246.51"/>
    <path class="cls-1" d="M132.51,225.31h44.3v12.57H150.12v9h22.94v12H150.12v18.81H132.51Z"/>
</svg>